<svg width="79" height="46" viewBox="0 0 79 46" fill="none" xmlns="http://www.w3.org/2000/svg">
<g clip-path="url(#clip0_699_1595)">
<path fill-rule="evenodd" clip-rule="evenodd" d="M10.1077 0.571071C14.2261 0.571071 17.2889 2.67722 17.2889 5.78929C17.2889 8.21503 15.7445 9.37813 14.3769 9.92825C16.6181 10.6093 18.6513 11.9087 18.6513 14.7588C18.6513 18.9763 14.9073 20.4118 10.8513 20.4118H0.544922V0.571071H10.1077ZM6.85772 8.15216H9.17692C10.0973 8.15216 10.8461 7.39772 10.8461 6.69567C10.8461 5.93599 10.1233 5.19203 9.17692 5.19203H6.85772V8.15216ZM6.85772 15.8433H9.73852C11.0489 15.8433 11.8913 15.0155 11.8913 14.0253C11.8913 13.0875 10.9917 12.2702 9.92052 12.2702H6.85772V15.8433ZM15.2141 22.5756C19.3377 22.5756 22.3953 24.6818 22.3953 27.7938C22.3953 30.2196 20.8509 31.3827 19.4833 31.9328C21.7245 32.6139 23.7577 33.9132 23.7577 36.7633C23.7577 40.9809 20.0137 42.4164 15.9577 42.4164H5.65132V22.5756H15.2141ZM11.9641 30.1567H14.2885C15.2037 30.1567 15.9525 29.4023 15.9525 28.7002C15.9525 27.9405 15.2297 27.1966 14.2885 27.1966H11.9641V30.1567ZM11.9641 37.8478H14.8449C16.1553 37.8478 16.9977 37.02 16.9977 36.0298C16.9977 35.092 16.0981 34.2747 15.0269 34.2747H11.9641V37.8478ZM19.1505 20.4066V0.565831H35.0261V5.35968H25.4425V7.95831H33.2269V12.4535H25.4425V15.6337H35.0261V20.4066H19.1505ZM35.3329 17.698L39.0821 14.0934C39.9921 14.8531 41.1569 15.749 42.6285 15.749C43.9233 15.749 44.6357 14.9945 44.6357 14.2453C44.6357 12.113 36.0869 13.0979 36.0869 6.29226C36.0869 2.85011 39.2069 0 43.9753 0C47.1525 0 49.5081 1.20501 51.0005 2.63531L47.2721 6.21367C47.2721 6.21367 46.1905 5.22346 44.7033 5.22346C43.8401 5.22346 42.9925 5.65308 42.9925 6.46515C42.9925 8.55558 51.6661 7.52346 51.6661 14.2401C51.6661 18.4052 48.0937 20.9724 43.6217 20.9724C39.2693 20.9724 36.8409 19.1859 35.3329 17.698ZM56.5229 20.4066V5.33872H51.3281V0.565831H68.0357V5.33872H62.8357V20.4066H56.5229ZM23.9761 22.5599H30.2733V34.4476C30.2733 35.6526 31.4641 36.7633 32.7069 36.7633C33.8769 36.7633 35.0625 35.7574 35.0625 34.3795V22.5599H41.3389V34.3009C41.3389 38.9585 37.5013 42.6784 32.5405 42.6784C27.5485 42.6784 23.9761 38.6337 23.9761 34.0494V22.5599ZM49.0973 42.3954V35.3068L41.7029 22.5599H48.0677L52.2537 29.3918L56.4553 22.5599H62.8357L55.4101 35.3802V42.3954H49.0973Z" fill="#3A3A3A"/>
<path d="M61.3899 40.5303C61.8523 40.5303 62.2271 40.1526 62.2271 39.6868C62.2271 39.2209 61.8523 38.8433 61.3899 38.8433C60.9276 38.8433 60.5527 39.2209 60.5527 39.6868C60.5527 40.1526 60.9276 40.5303 61.3899 40.5303Z" fill="#3A3A3A"/>
<path d="M78.545 33.4209V45.9583H62.8358L59.123 42.2175V37.1617L62.8358 33.4209H78.545Z" fill="#3a3a3a"/>
</g>
<defs>
<clipPath id="clip0_699_1595">
<rect width="78" height="46" fill="white" transform="translate(0.544922)"/>
</clipPath>
</defs>
</svg>
