<svg width="62" height="46" viewBox="0 0 62 46" fill="none" xmlns="http://www.w3.org/2000/svg">
<g clip-path="url(#clip0_699_1588)">
<path d="M8.46785 44.2358C8.82361 43.0624 9.18482 42.0516 9.19694 41.0367C9.25675 36.0244 9.22415 31.011 9.22415 25.8586C8.40761 25.6128 7.67315 25.3918 6.93869 25.1707C6.96189 25.0485 6.98509 24.9263 7.00829 24.8041C9.66626 24.8041 12.3242 24.8041 14.9822 24.8041C14.9999 24.9411 15.0176 25.0782 15.0353 25.2153C14.4527 25.369 13.8701 25.5228 13.1901 25.7022C13.1901 32.2678 13.1901 38.7712 13.1901 44.8006C11.6803 45.0418 10.3416 45.0733 9.12845 45.4817C4.45225 47.0557 0.702735 44.6083 0.667142 39.6399C0.585175 28.1983 0.600659 16.7555 0.658413 5.31351C0.680524 0.932928 4.66131 -1.21276 9.2344 0.475144C10.1924 0.828724 11.2799 0.827444 12.5911 1.03441C12.5911 5.28701 12.5911 9.97946 12.5911 14.7676C11.8751 14.7676 11.2181 14.7676 10.492 14.7676C10.1712 11.5116 9.89502 8.37008 9.53114 5.23885C9.43174 4.38356 9.28088 3.38179 8.77184 2.76661C8.16614 2.0346 7.1007 1.17961 6.32577 1.26065C5.72793 1.32317 4.85261 2.73153 4.82078 3.56917C4.64379 8.22735 4.6673 12.8939 4.65861 17.5577C4.64368 25.5672 4.62739 33.5768 4.67098 41.5861C4.68709 44.5477 5.71557 45.2792 8.46785 44.2358Z" fill="#3a3a3a"/>
<path d="M52.6193 41.0803C52.0552 43.9095 53.7669 44.4381 55.7149 45.0711C52.6271 45.0711 49.5394 45.0711 46.4517 45.0711C49.1678 44.4234 48.4868 42.2347 48.4889 40.3936C48.5032 27.5431 48.4965 14.6925 48.4965 1.64519C47.7746 1.45216 47.0915 1.26948 46.3896 1.08179C46.5353 0.793829 46.5976 0.558458 46.6629 0.557624C49.8088 0.517416 52.9629 0.346697 56.0988 0.515611C59.5633 0.70222 61.409 2.86246 61.4349 6.40162C61.4671 10.8038 61.4506 15.2063 61.4462 19.6087C61.442 23.791 59.9266 25.3665 55.8042 25.4733C54.8543 25.4979 53.9033 25.4769 52.6185 25.4769C52.6185 30.6931 52.6185 35.7642 52.6193 41.0803ZM57.1142 19.6845C57.1105 14.8442 57.1169 10.0038 57.0996 5.16354C57.0876 1.78262 56.2179 1.0627 52.7221 1.55856C52.7221 9.16249 52.7221 16.7781 52.7221 24.3781C56.4259 24.8356 57.1149 24.1527 57.1142 19.6845Z" fill="#3a3a3a"/>
<path d="M33.2751 9.82677C34.5802 20.4589 35.8084 30.8624 37.1779 41.247C37.3566 42.6022 38.262 43.8605 38.8584 45.2267C36.7038 45.2267 34.0227 45.2267 30.8038 45.2267C33.6507 44.1975 33.1427 42.2856 32.8664 40.3235C32.1945 35.551 31.6479 30.7606 31.0422 25.9088C29.4549 25.9088 28.0838 25.9088 26.4517 25.9088C25.8101 31.4309 25.0797 36.9038 24.6396 42.4002C24.5749 43.2088 25.8881 44.1289 26.6544 45.1138C24.798 45.1138 22.8204 45.1138 20.8428 45.1138C23.6152 44.0393 23.4241 41.527 23.7087 39.1886C25.2707 26.3538 26.8714 13.5237 28.4747 0.563477C29.636 0.563477 30.7378 0.563477 32.1384 0.563477C32.5029 3.54531 32.8725 6.5688 33.2751 9.82677ZM26.8365 22.962C27.2185 26.2501 29.4779 23.9655 31.0534 24.6517C30.3548 19.4111 29.7026 14.518 29.0504 9.62492C28.8597 9.62838 28.669 9.63185 28.4783 9.63532C27.9491 13.9223 27.4198 18.2093 26.8365 22.962Z" fill="#3a3a3a"/>
</g>
<defs>
<clipPath id="clip0_699_1588">
<rect width="61" height="46" fill="white" transform="translate(0.544922)"/>
</clipPath>
</defs>
</svg>
