<svg width="600" height="123.28" viewBox="0 2.13 600 123.28" fill="none" xmlns="http://www.w3.org/2000/svg">
<path d="M52.9517 68.4844H66.7563V125.336C59.384 125.633 52.4074 124.52 45.8267 121.996C39.2954 119.423 33.5806 115.514 28.6821 110.27C23.7837 104.975 19.8996 98.3451 17.0298 90.3789C14.16 82.4128 12.7251 73.1849 12.7251 62.6953C12.7251 53.3932 13.8384 45.1302 16.0649 37.9063C18.2915 30.6823 21.2603 24.5964 24.9712 19.6484C28.7316 14.6511 33.061 10.8659 37.9595 8.29298C42.8579 5.72006 47.979 4.4336 53.3228 4.4336C55.6483 4.4336 57.9243 4.681 60.1509 5.17579C62.4269 5.67058 64.8267 6.43751 67.3501 7.47657L61.1157 19.4258C60.1261 19.03 58.8892 18.7331 57.4048 18.5352C55.9699 18.2878 54.7082 18.1641 53.6196 18.1641C50.354 18.1641 47.1379 19.1289 43.9712 21.0586C40.8045 22.9883 37.9595 25.8333 35.436 29.5938C32.9621 33.3542 30.9334 38.03 29.3501 43.6211C27.8162 49.1628 27.0493 55.5703 27.0493 62.8438C27.0493 69.3255 27.6925 75.1888 28.979 80.4336C30.2655 85.6289 32.0467 90.181 34.3228 94.0899C36.5988 97.9492 39.3202 101.141 42.4868 103.664C45.6535 106.188 49.1418 107.993 52.9517 109.082V68.4844Z" fill="#0730E6"/>
<path d="M90.4678 4.28517C98.9287 3.93881 106.301 4.681 112.585 6.51173C118.869 8.34246 124.064 11.0886 128.171 14.75C132.278 18.362 135.345 22.7656 137.374 27.9609C139.403 33.1563 140.417 38.9206 140.417 45.2539C140.417 52.6263 139.081 59.1823 136.409 64.9219C133.737 70.6615 129.631 75.3372 124.089 78.9492L144.647 124H129.061L112.14 84.1445C109.666 84.8372 107.043 85.3568 104.272 85.7031V124H90.4678V4.28517ZM104.272 71.6758C107.439 71.3789 110.358 70.6367 113.03 69.4492C115.702 68.2617 118.003 66.5794 119.933 64.4024C121.862 62.1758 123.371 59.4792 124.46 56.3125C125.548 53.1458 126.093 49.4596 126.093 45.2539C126.093 41.0482 125.548 37.362 124.46 34.1953C123.371 31.0287 121.862 28.3568 119.933 26.1797C118.003 23.9531 115.702 22.2461 113.03 21.0586C110.358 19.8711 107.439 19.1289 104.272 18.832V71.6758Z" fill="#0730E6"/>
<path d="M161.753 5.76954H175.558V124H161.753V5.76954Z" fill="#0730E6"/>
<path d="M213.445 18.832H194.891V5.76954H245.805V18.832H227.25V124H213.445V18.832Z" fill="#0730E6"/>
<path d="M290.617 4.43359C298.781 4.87891 306.178 6.5612 312.809 9.48047C319.439 12.3997 325.104 16.4323 329.805 21.5781C334.555 26.724 338.216 32.9336 340.789 40.207C343.362 47.4805 344.648 55.7188 344.648 64.9219C344.648 74.125 343.362 82.3633 340.789 89.6367C338.216 96.9102 334.555 103.12 329.805 108.266C325.104 113.411 319.439 117.444 312.809 120.363C306.178 123.283 298.781 124.965 290.617 125.41V4.43359ZM304.422 109.379C307.589 108.389 310.706 106.806 313.773 104.629C316.891 102.452 319.661 99.582 322.086 96.0195C324.56 92.457 326.539 88.1276 328.023 83.0312C329.557 77.8854 330.324 71.849 330.324 64.9219C330.324 57.9948 329.557 51.9831 328.023 46.8867C326.539 41.7409 324.56 37.3867 322.086 33.8242C319.661 30.2617 316.891 27.3919 313.773 25.2148C310.706 23.0378 307.589 21.4544 304.422 20.4648V109.379Z" fill="#2D2D2D"/>
<path d="M389.215 2.13281L423.579 124H408.735L403.54 104.332H374.817L369.696 124H354.852L389.215 2.13281ZM400.125 91.2695L392.184 60.7656L389.141 46.6641L386.247 60.7656L378.231 91.2695H400.125Z" fill="#2D2D2D"/>
<path d="M439.868 5.76953H453.673V124H439.868V5.76953Z" fill="#2D2D2D"/>
<path d="M480.427 5.76953H494.232V111.086H524.736V124H480.427V5.76953Z" fill="#2D2D2D"/>
<path d="M555.35 83.6992L530.857 5.69531H545.701L562.326 64.0312L578.951 5.69531H593.795L569.154 84.2188V124H555.35V83.6992Z" fill="#2D2D2D"/>
</svg>
