<svg width="48" height="48" viewBox="36 32 48 48" fill="none" xmlns="http://www.w3.org/2000/svg">
<g filter="url(#filter0_d_2036_19211)">
<circle cx="60" cy="56.0652" r="24" fill="#7622FF"/>
</g>
<path d="M65.7816 49.1112C65.069 49.1112 64.4943 49.6859 64.4943 50.3985C64.4943 51.1112 65.069 51.6859 65.7816 51.6859C66.4943 51.6859 67.069 51.1112 67.069 50.3985C67.069 49.6859 66.4943 49.1112 65.7816 49.1112ZM60.0345 50.7663C57.046 50.7663 54.6092 53.2031 54.6092 56.1916C54.6092 59.1801 57.046 61.6169 60.0345 61.6169C63.023 61.6169 65.4598 59.1801 65.4598 56.1916C65.4598 53.2031 63.023 50.7663 60.0345 50.7663ZM60.0345 59.6859C58.1034 59.6859 56.5632 58.1227 56.5632 56.2146C56.5632 54.2836 58.1264 52.7433 60.0345 52.7433C61.9655 52.7433 63.5057 54.3066 63.5057 56.2146C63.5057 58.1227 61.9425 59.6859 60.0345 59.6859ZM71 51.6859C71 48.0307 68.0345 45.0652 64.3793 45.0652H55.6207C51.9655 45.0652 49 48.0307 49 51.6859V60.4445C49 64.0997 51.9655 67.0652 55.6207 67.0652H64.3563C68.0115 67.0652 70.977 64.0997 70.977 60.4445V51.6859H71ZM68.908 60.4215C68.908 62.9273 66.8621 64.9732 64.3563 64.9732H55.6207C53.1149 64.9732 51.069 62.9273 51.069 60.4215V51.6859C51.069 49.1571 53.092 47.1342 55.6207 47.1342H64.3563C66.8621 47.1342 68.908 49.1801 68.908 51.6859V60.4215Z" fill="white"/>
<defs>
<filter id="filter0_d_2036_19211" x="0" y="0.0651855" width="120" height="120" filterUnits="userSpaceOnUse" color-interpolation-filters="sRGB">
<feFlood flood-opacity="0" result="BackgroundImageFix"/>
<feColorMatrix in="SourceAlpha" type="matrix" values="0 0 0 0 0 0 0 0 0 0 0 0 0 0 0 0 0 0 127 0" result="hardAlpha"/>
<feOffset dy="4"/>
<feGaussianBlur stdDeviation="18"/>
<feComposite in2="hardAlpha" operator="out"/>
<feColorMatrix type="matrix" values="0 0 0 0 0 0 0 0 0 0 0 0 0 0 0 0 0 0 0.06 0"/>
<feBlend mode="normal" in2="BackgroundImageFix" result="effect1_dropShadow_2036_19211"/>
<feBlend mode="normal" in="SourceGraphic" in2="effect1_dropShadow_2036_19211" result="shape"/>
</filter>
</defs>
</svg>
