<svg width="48" height="48" viewBox="36 32 48 48" fill="none" xmlns="http://www.w3.org/2000/svg">
<g filter="url(#filter0_d_2036_19215)">
<circle cx="60" cy="56.0652" r="24" fill="#7622FF"/>
</g>
<g clip-path="url(#clip0_2036_19215)">
<path fill-rule="evenodd" clip-rule="evenodd" d="M61.6235 53.9858C62.9712 52.4361 64.4956 51.6501 66.4229 51.745C69.5585 51.8991 71.7653 54.082 71.924 57.4898C72.0633 60.4913 71.9645 63.5033 71.9858 66.51C71.9911 67.2315 71.6532 67.5012 70.9608 67.4837C70.0332 67.4603 69.1023 67.4389 68.177 67.4929C67.259 67.5465 66.9098 67.1781 66.9256 66.2663C66.9618 64.225 66.9395 62.1822 66.9355 60.1401C66.9342 59.5836 66.9411 59.0245 66.8976 58.4706C66.7636 56.7563 65.7576 55.7217 64.2663 55.7333C62.7335 55.7451 61.4933 56.977 61.4663 58.6159C61.4268 61.0287 61.4506 63.4423 61.4455 65.8557C61.442 67.4715 61.4406 67.4715 59.8452 67.482C56.3952 67.5042 56.3965 67.5042 56.3952 64.0534C56.3939 60.5263 56.4196 56.9983 56.3682 53.472C56.3534 52.4509 56.6948 52.042 57.713 52.1374C58.3017 52.1927 58.9 52.1436 59.4944 52.146C61.2678 52.1539 61.2678 52.1548 61.6235 53.9858ZM48.3603 59.7499C48.3603 57.6345 48.3991 55.5182 48.3432 53.4045C48.3175 52.416 48.695 52.0738 49.6478 52.1325C50.5722 52.1892 51.5033 52.1644 52.4303 52.1447C53.1267 52.1303 53.4415 52.4138 53.4389 53.1328C53.4224 57.5862 53.4201 62.0389 53.4288 66.4922C53.4301 67.2051 53.1218 67.4989 52.4208 67.4841C51.4193 67.4627 50.416 67.4548 49.4153 67.488C48.6471 67.5137 48.3586 67.1854 48.3668 66.4294C48.3912 64.203 48.3755 61.9761 48.3755 59.7497C48.3708 59.7499 48.3655 59.7499 48.3603 59.7499ZM50.8467 49.9371C49.2177 49.9302 48.0111 48.8083 48.0001 47.2903C47.9888 45.7982 49.2342 44.6327 50.8401 44.6316C52.5876 44.6307 53.7711 45.7077 53.7642 47.2922C53.7567 48.9058 52.6111 49.944 50.8467 49.9371Z" fill="white"/>
</g>
<defs>
<filter id="filter0_d_2036_19215" x="0" y="0.0651855" width="120" height="120" filterUnits="userSpaceOnUse" color-interpolation-filters="sRGB">
<feFlood flood-opacity="0" result="BackgroundImageFix"/>
<feColorMatrix in="SourceAlpha" type="matrix" values="0 0 0 0 0 0 0 0 0 0 0 0 0 0 0 0 0 0 127 0" result="hardAlpha"/>
<feOffset dy="4"/>
<feGaussianBlur stdDeviation="18"/>
<feComposite in2="hardAlpha" operator="out"/>
<feColorMatrix type="matrix" values="0 0 0 0 0 0 0 0 0 0 0 0 0 0 0 0 0 0 0.06 0"/>
<feBlend mode="normal" in2="BackgroundImageFix" result="effect1_dropShadow_2036_19215"/>
<feBlend mode="normal" in="SourceGraphic" in2="effect1_dropShadow_2036_19215" result="shape"/>
</filter>
<clipPath id="clip0_2036_19215">
<rect width="24" height="24" fill="white" transform="translate(48 44.0652)"/>
</clipPath>
</defs>
</svg>
