<svg width="20" height="19" viewBox="0 0 20 19" fill="none" xmlns="http://www.w3.org/2000/svg">
<path d="M18.9836 6.47929H12.6905L10.7784 0.478572C10.7296 0.338273 10.6411 0.217116 10.5247 0.131514C10.4083 0.0459109 10.2697 0 10.1277 0C9.98561 0 9.84701 0.0459109 9.73061 0.131514C9.61421 0.217116 9.52565 0.338273 9.47692 0.478572L7.56478 6.47929H1.22969C1.04824 6.47984 0.874376 6.55589 0.746072 6.69081C0.617767 6.82573 0.545453 7.00857 0.544925 7.19938C0.544792 7.24012 0.549159 7.28075 0.557939 7.32044C0.566985 7.42218 0.597353 7.52054 0.64686 7.60846C0.696366 7.69638 0.763782 7.77167 0.84426 7.82892L6.01605 11.662L4.03183 17.7301C3.98504 17.8739 3.98259 18.0296 4.02483 18.1749C4.06708 18.3203 4.15185 18.4479 4.26709 18.5397C4.374 18.6408 4.5093 18.7025 4.65252 18.7155C4.80629 18.7045 4.95419 18.6491 5.08 18.5555L10.1277 14.7655L15.1763 18.5555C15.3009 18.6518 15.4494 18.7081 15.6038 18.7176C15.7462 18.7072 15.8807 18.6451 15.9842 18.5418C16.1006 18.451 16.1862 18.3234 16.2285 18.1777C16.2709 18.032 16.2677 17.8759 16.2195 17.7322L14.2342 11.6631L19.364 7.79418L19.4881 7.68154C19.6156 7.55507 19.6946 7.38395 19.7104 7.20043C19.7004 7.00512 19.6193 6.82133 19.484 6.6871C19.3487 6.55287 19.1696 6.47847 18.9836 6.47929Z" fill="#F7DB49"/>
</svg>
