<svg width="152" height="46" viewBox="0 0 152 46" fill="none" xmlns="http://www.w3.org/2000/svg">
<g clip-path="url(#clip0_699_1592)">
<path d="M23.5045 30.9282C27.8592 30.9282 31.5668 27.3699 31.5668 22.8376C31.5668 18.4676 28.021 14.747 23.5045 14.747C19.1497 14.747 15.4422 18.3052 15.4422 22.8376C15.4422 27.2076 19.1497 30.9282 23.5045 30.9282ZM23.5045 38.3721C25.5163 38.3726 27.5086 37.9754 29.3674 37.203C31.2262 36.4307 32.9152 35.2985 34.3379 33.8709C35.7606 32.4434 36.889 30.7486 37.6588 28.8833C38.4286 27.0181 38.8246 25.0189 38.8242 22.9999C38.8242 14.5847 31.889 7.62783 23.5058 7.62783C15.1226 7.62783 8.18606 14.5847 8.18606 22.9999C8.18606 31.4152 15.1051 38.3721 23.5045 38.3721ZM0.28418 22.9999C0.28418 10.0523 10.7652 -0.301758 23.5045 -0.301758C36.2438 -0.301758 46.7248 10.2147 46.7248 22.9999C46.7248 35.7852 36.2451 46.3017 23.5045 46.3017C10.7639 46.3017 0.28418 35.9476 0.28418 22.9999Z" fill="#3a3a3a"/>
<path d="M60.3945 16.7763V33.546H55.363V16.7763H49.625V12.5335H66.235V16.7763H60.3945ZM91.1001 16.7763H86.469V21.0191H90.5945C92.1045 21.0191 93.1116 20.413 93.1116 18.8977C93.2128 17.3824 92.2043 16.7763 91.0974 16.7763H91.1001ZM81.5359 12.5335H91.301C96.8381 12.5335 97.643 16.3718 97.643 18.5946C97.643 21.8417 94.925 23.4436 94.623 23.5464C94.623 23.5464 97.1401 24.4556 97.1401 27.1831V31.1229C97.1401 32.6382 98.0461 33.1428 98.2457 33.5473H94.2185C92.3041 33.3444 92.4065 31.8291 92.4065 31.0214V27.5998C92.3054 26.7908 92.1045 25.8816 90.3937 25.8816H86.3665V33.5595H81.6478V12.5483L81.5359 12.5335ZM132.575 20.5239H124.018V16.7763H134.085V12.5335H119.086V33.5446H134.087V29.3018H124.019V24.5665H132.577L132.575 20.5239ZM145.664 33.5582V16.7763H151.805V12.5335H134.79V16.7763H140.731V33.546L145.664 33.5582ZM71.3663 20.0206L69.6541 25.4757H73.2781L71.3663 20.0206ZM68.5351 12.5456H73.9711L81.3188 33.4581H76.0985L74.5885 29.1286H68.4474L66.9374 33.4581H61.8034L68.5351 12.5456ZM117.362 21.8403H108.402V25.8816H112.716C112.716 26.6906 112.817 27.4983 111.81 28.7228C111.406 29.1286 110.3 30.0351 108.689 30.0351C107.28 30.0351 106.273 29.6292 105.453 28.9257C103.539 27.3089 103.037 24.3798 103.037 22.6616C103.037 20.6416 103.843 15.7913 108.574 15.5898C108.574 15.5898 111.896 15.3868 112.7 19.3279H117.23C117.129 17.308 114.814 11.7515 108.673 11.7515C106.559 11.7515 103.841 12.3576 101.525 14.6806C99.9134 16.2973 98.4034 19.1263 98.4034 22.9646C98.4034 27.2075 99.9134 29.935 101.322 31.4516C103.839 34.0791 106.355 34.2928 107.664 34.2928C108.671 34.2928 110.684 34.0899 113.201 32.3716L113.805 33.5839H117.23L117.362 21.8403Z" fill="#3A3A3A"/>
</g>
<defs>
<clipPath id="clip0_699_1592">
<rect width="151" height="46" fill="white" transform="translate(0.544922)"/>
</clipPath>
</defs>
</svg>
