<?xml version="1.0" encoding="utf-8"?>
<!-- Generator: Adobe Illustrator 28.1.0, SVG Export Plug-In . SVG Version: 6.00 Build 0)  -->
<svg version="1.1" id="Layer_1" xmlns="http://www.w3.org/2000/svg" xmlns:xlink="http://www.w3.org/1999/xlink" x="0px" y="0px"
	 viewBox="0 0 753 154.2" style="enable-background:new 0 0 753 154.2;" xml:space="preserve">
<style type="text/css">
	.st0{fill:#FA2685;}
</style>
<g>
	<path class="st0" d="M234.8,82.5v56.9h-41.2V89.6c0-12.4-4.7-17.2-12.2-17.2c-8.4,0-15.5,5.3-15.5,20.1v46.9h-41.2V4h41.2v43.6
		c7.7-6.6,17.3-9.9,28.1-9.9C216.9,37.7,234.8,51.1,234.8,82.5z"/>
	<path class="st0" d="M345.6,99.1h-69.4c2.9,7.7,9.9,11.7,20.1,11.7c9.1,0,14.2-2.4,20.8-7.3l21.5,21.7
		c-9.7,10.6-23.7,16.1-43.6,16.1c-36.7,0-60.4-22.1-60.4-51.8c0-30.3,24.3-51.7,56.6-51.7c29.6,0,54.9,17.9,54.9,51.7
		C346.2,92.3,345.8,96.1,345.6,99.1z M275.5,79.2h32.1c-1.6-8.4-7.7-13.3-16.1-13.3C283,65.9,277.2,70.8,275.5,79.2z"/>
	<path class="st0" d="M458.6,4v135.4h-39.2v-8.2c-6,6.8-15,10-27.4,10c-26.1,0-48.2-19.7-48.2-51.8c0-32.1,22.1-51.7,48.2-51.7
		c11,0,19.3,2.7,25.4,8.6V4H458.6z M418.1,89.4c0-13-7.1-19.5-16.2-19.5c-9.1,0-16.2,6.6-16.2,19.5c0,13,7.1,19.7,16.2,19.7
		C411,109.1,418.1,102.4,418.1,89.4z"/>
	<path class="st0" d="M572.7,4v135.4h-39.2v-8.2c-6,6.8-15,10-27.4,10c-26.1,0-48.2-19.7-48.2-51.8c0-32.1,22.1-51.7,48.2-51.7
		c11,0,19.3,2.7,25.4,8.6V4H572.7z M532.2,89.4c0-13-7.1-19.5-16.2-19.5c-9.1,0-16.2,6.6-16.2,19.5c0,13,7.1,19.7,16.2,19.7
		C525,109.1,532.2,102.4,532.2,89.4z"/>
	<path class="st0" d="M675.1,85.7v53.7h-38.3v-13.1c-4.7,10-14.2,15-28.3,15c-24.5,0-37-13.9-37-31c0-19.3,14.6-30.1,45.6-30.1h16.6
		c-1.3-7.7-7.1-11.7-18.8-11.7c-8.9,0-19,2.9-25.6,7.8l-13.1-27.2c11.7-7.3,29.4-11.3,44.9-11.3C655.4,37.7,675.1,52.5,675.1,85.7z
		 M633.8,106.9V100h-10.2c-8.8,0-12.6,2.9-12.6,8.4c0,4.6,3.7,8,9.9,8C626.5,116.4,631.6,113.5,633.8,106.9z"/>
	<path class="st0" d="M749.9,37.7v36.5c-3.7-0.5-6.2-0.7-9.1-0.7c-12.4,0-21.2,5.7-21.2,21.5v44.3h-41.2V39.6h39.2v10.8
		C724.9,41.9,736,37.7,749.9,37.7z"/>
</g>
<path class="st0" d="M64.6,108.4c-9.5,0-17.4-6.7-17.4-20.2c0-13.3,7.8-20,17.4-20c7.3,0,13.4,3.9,17.7,13.5l32.7-16.1
	c-6.7-18.9-25.4-30.3-50.2-30.3c-35.3,0-60.3,21.9-60.3,52.9c0,31.2,25,53,60.3,53c8.8,0,16.7-1.4,23.7-4.1c-1-1.8-1.5-3.9-1.5-6.1
	c0-7.2,5.8-13,13-13c3.6,0,6.9,1.5,9.2,3.9c2.4-3.3,4.4-6.9,5.8-10.9L82.4,95C78.1,104.5,71.9,108.4,64.6,108.4z"/>
<g>
	<g>
		<g>
			<path class="st0" d="M96.5,147.8C96.5,147.8,96.5,147.8,96.5,147.8L96.5,147.8c12-3.2,19.8-16.4,19.9-16.6l0,0c0,0,0,0,0,0l0,0
				l0,0c-4-4.8-11.8-5-17.3-0.4C93.7,135.3,92.5,142.9,96.5,147.8L96.5,147.8C96.5,147.8,96.5,147.8,96.5,147.8z"/>
		</g>
	</g>
</g>
</svg>
