<svg width="15" height="15" viewBox="0 0 15 15" fill="none" xmlns="http://www.w3.org/2000/svg">
<g id="SVG" clip-path="url(#clip0_699_1709)">
<g id="envelope4_layer">
<path id="Vector" d="M13.9591 5.78086C14.0619 5.69912 14.2148 5.77559 14.2148 5.90479V11.2969C14.2148 11.9956 13.6479 12.5625 12.9492 12.5625H1.98047C1.28174 12.5625 0.714844 11.9956 0.714844 11.2969V5.90742C0.714844 5.77559 0.865137 5.70176 0.970605 5.7835C1.56123 6.24229 2.34434 6.825 5.03379 8.77881C5.59014 9.18486 6.52881 10.0392 7.46484 10.0339C8.40615 10.0418 9.36328 9.16904 9.89853 8.77881C12.588 6.825 13.3685 6.23965 13.9591 5.78086ZM7.46484 9.1875C8.07656 9.19805 8.95723 8.41758 9.4002 8.0959C12.8991 5.55674 13.1654 5.33525 13.9723 4.70244C14.1252 4.58379 14.2148 4.39922 14.2148 4.2041V3.70312C14.2148 3.00439 13.6479 2.4375 12.9492 2.4375H1.98047C1.28174 2.4375 0.714844 3.00439 0.714844 3.70312V4.2041C0.714844 4.39922 0.804492 4.58115 0.957422 4.70244C1.76426 5.33262 2.03057 5.55674 5.52949 8.0959C5.97246 8.41758 6.85313 9.19805 7.46484 9.1875Z" fill="white"/>
</g>
</g>
<defs>
<clipPath id="clip0_699_1709">
<rect width="13.5" height="13.5" fill="white" transform="translate(0.714844 0.75)"/>
</clipPath>
</defs>
</svg>
