<svg width="176" height="18" viewBox="0 0 176 18" fill="none" xmlns="http://www.w3.org/2000/svg">
<path d="M176 3.28079V0.665025C176 0.310345 175.728 0.0443351 175.365 0.0443351H162.8C162.437 0.0443351 162.165 0.310345 162.165 0.665025V17.3793C162.165 17.734 162.437 18 162.8 18H175.32C175.682 18 175.955 17.734 175.955 17.3793V14.7635C175.955 14.4089 175.682 14.1429 175.32 14.1429H167.019C166.656 14.1429 166.384 13.8768 166.384 13.5222V11.3498C166.384 10.9951 166.656 10.7291 167.019 10.7291H174.004C174.367 10.7291 174.639 10.4631 174.639 10.1084V7.62562C174.639 7.27094 174.367 7.00493 174.004 7.00493H167.019C166.656 7.00493 166.384 6.73892 166.384 6.38424V4.47783C166.384 4.12315 166.656 3.85714 167.019 3.85714H175.32C175.682 3.85714 175.955 3.59113 175.955 3.23645L176 3.28079ZM160.94 0.62069C161.076 0.310345 160.895 0.0443351 160.532 0.0443351H156.994C156.631 0.0443351 156.268 0.310345 156.132 0.62069L151.823 11.9261C151.687 12.2365 151.505 12.2365 151.369 11.9261L147.105 0.62069C146.969 0.310345 146.606 0.0443351 146.243 0.0443351H142.66C142.297 0.0443351 142.161 0.310345 142.252 0.62069L148.965 17.4236C149.101 17.734 149.464 18 149.827 18H153.365C153.728 18 154.091 17.734 154.227 17.4236L160.94 0.62069ZM141.027 17.335V0.665025C141.027 0.310345 140.755 0.0443351 140.392 0.0443351H137.216C136.854 0.0443351 136.581 0.310345 136.581 0.665025V17.3793C136.581 17.734 136.854 18 137.216 18H140.392C140.755 18 141.027 17.734 141.027 17.3793V17.335ZM135.357 17.335V14.6749C135.357 14.3202 135.085 14.0542 134.722 14.0542H127.373C127.01 14.0542 126.738 13.7882 126.738 13.4335V0.62069C126.738 0.26601 126.466 0 126.103 0H123.019C122.656 0 122.384 0.26601 122.384 0.62069V17.335C122.384 17.6897 122.656 17.9557 123.019 17.9557H134.722C135.085 17.9557 135.357 17.6897 135.357 17.335ZM118.12 13.3448C118.12 10.8177 116.033 8.73399 113.402 8.73399C110.771 8.73399 108.685 10.8177 108.685 13.3448C108.685 15.8719 110.771 17.9557 113.402 17.9557C116.033 17.9557 118.12 15.8719 118.12 13.3448ZM112.359 14.7635C112.359 14.8522 112.313 14.8966 112.223 14.8966H111.905C111.814 14.8966 111.769 14.8522 111.769 14.7635C111.769 14.6749 111.724 14.6749 111.678 14.7192C111.678 14.7192 111.361 14.9409 111.043 14.9409C110.408 14.9409 109.955 14.4532 109.955 13.7882C109.955 13.1232 110.454 12.6355 111.043 12.6355C111.633 12.6355 111.588 12.7685 111.769 12.9458V11.8374C111.769 11.7488 111.814 11.7044 111.905 11.7044H112.223C112.313 11.7044 112.359 11.7488 112.359 11.8374V14.7192V14.7635ZM115.035 13.7882C115.035 14.4532 114.536 14.9409 113.856 14.9409C113.175 14.9409 112.676 14.4532 112.676 13.7882C112.676 13.1232 113.175 12.6355 113.856 12.6355C114.536 12.6355 115.035 13.1232 115.035 13.7882ZM116.124 13.3448V14.0099C116.124 14.0985 116.124 14.1872 116.124 14.2759C116.124 14.2759 116.169 14.4089 116.351 14.4089C116.532 14.4089 116.487 14.4089 116.487 14.4089C116.532 14.4089 116.623 14.4089 116.668 14.4975L116.759 14.8522C116.577 14.9409 116.441 14.9409 116.26 14.9409C115.761 14.9409 115.534 14.6305 115.534 14.1872V13.3892C115.534 13.3005 115.489 13.2562 115.398 13.2562H115.307C115.216 13.2562 115.171 13.2118 115.171 13.1232V12.9015C115.171 12.8128 115.216 12.7685 115.307 12.7685H115.398C115.489 12.7685 115.534 12.7241 115.534 12.6355V12.1921C115.534 12.1034 115.579 12.0591 115.67 12.0591H115.988C116.078 12.0591 116.124 12.1034 116.124 12.1921V12.6355C116.124 12.7241 116.169 12.7685 116.26 12.7685H116.668C116.759 12.7685 116.804 12.8128 116.804 12.9015V13.1232C116.804 13.2118 116.759 13.2562 116.668 13.2562H116.26C116.169 13.2562 116.124 13.3005 116.124 13.3892V13.3448ZM114.491 13.7882C114.491 13.4335 114.219 13.1675 113.856 13.1675C113.493 13.1675 113.221 13.4335 113.221 13.7882C113.221 14.1429 113.447 14.4089 113.856 14.4089C114.264 14.4089 114.491 14.1429 114.491 13.7882ZM111.769 13.7882C111.769 13.4335 111.497 13.1675 111.134 13.1675C110.771 13.1675 110.499 13.4335 110.499 13.7882C110.499 14.1429 110.771 14.4089 111.134 14.4089C111.497 14.4089 111.769 14.1429 111.769 13.7882ZM107.188 3.28079V0.665025C107.188 0.310345 106.915 0.0443351 106.553 0.0443351H91.9464C91.5835 0.0443351 91.3113 0.310345 91.3113 0.665025V3.28079C91.3113 3.63547 91.5835 3.90148 91.9464 3.90148H96.4825C96.8454 3.90148 97.1175 4.16749 97.1175 4.52217V17.335C97.1175 17.6897 97.3897 17.9557 97.7526 17.9557H100.792C101.155 17.9557 101.427 17.6897 101.427 17.335V4.52217C101.427 4.16749 101.699 3.90148 102.062 3.90148H106.598C106.961 3.90148 107.233 3.63547 107.233 3.28079H107.188ZM89.9959 3.28079V0.665025C89.9959 0.310345 89.7237 0.0443351 89.3608 0.0443351H76.932C76.5691 0.0443351 76.2969 0.310345 76.2969 0.665025V17.2906C76.2969 17.6453 76.5691 17.9113 76.932 17.9113H89.3155C89.6783 17.9113 89.9505 17.6453 89.9505 17.2906V14.6749C89.9505 14.3202 89.6783 14.0542 89.3155 14.0542H81.1505C80.7876 14.0542 80.5155 13.7882 80.5155 13.4335V11.2611C80.5155 10.9064 80.7876 10.6404 81.1505 10.6404H88.0454C88.4082 10.6404 88.6804 10.3744 88.6804 10.0197V7.53695C88.6804 7.18227 88.4082 6.91626 88.0454 6.91626H81.1505C80.7876 6.91626 80.5155 6.65025 80.5155 6.29557V4.4335C80.5155 4.07882 80.7876 3.81281 81.1505 3.81281H89.3608C89.7237 3.81281 89.9959 3.5468 89.9959 3.19212V3.28079ZM74.8907 17.468L68.1773 8.29064C67.9959 8.02463 67.9959 7.58128 68.2227 7.31527L74.3464 0.53202C74.5732 0.26601 74.4825 0.0886703 74.1196 0.0886703H69.9464C69.5835 0.0886703 69.1299 0.310345 68.9031 0.576355L63.1423 7.40394C62.9155 7.66995 62.734 7.58128 62.734 7.27094V0.753695C62.734 0.399015 62.4619 0.133005 62.099 0.133005H59.0598C58.6969 0.133005 58.4247 0.399015 58.4247 0.753695V17.3793C58.4247 17.734 58.6969 18 59.0598 18H62.099C62.4619 18 62.734 17.734 62.734 17.3793V14.0985C62.734 13.7438 62.9155 13.2562 63.1423 13.0345L64.5485 11.4384C64.7753 11.1724 65.1381 11.2167 65.3196 11.4384L69.6742 17.468C69.8557 17.734 70.3093 17.9557 70.6722 17.9557H74.6186C74.9814 17.9557 75.0722 17.734 74.8907 17.468ZM56.7464 17.468L53.1629 12.2808C52.9814 12.0148 52.8 11.5714 53.1629 11.3054C55.2495 10.2414 56.3381 8.24631 56.3381 6.11823C56.3381 3.99015 53.934 0.0886703 49.8969 0.0886703H41.4598C41.0969 0.0886703 40.8247 0.35468 40.8247 0.70936V17.335C40.8247 17.6897 41.0969 17.9557 41.4598 17.9557H44.4536C44.8165 17.9557 45.0887 17.6897 45.0887 17.335V12.2808C45.0887 12.1478 45.1794 12.0591 45.3155 12.0591H47.901C48.0371 12.0591 48.2186 12.1478 48.3093 12.2808L51.7113 17.4236C51.8928 17.6897 52.6639 17.9113 53.0268 17.9113H56.4289C56.7917 17.9113 56.8825 17.6897 56.701 17.4236L56.7464 17.468ZM52.2103 6.11823C52.2103 7.35961 51.167 8.37931 49.6247 8.37931H45.2701C45.1794 8.37931 45.0887 8.29064 45.0887 8.20197V4.03448C45.0887 3.94581 45.1794 3.85714 45.2701 3.85714H49.7608C51.0763 3.85714 52.1649 4.87685 52.1649 6.11823H52.2103ZM39.6 17.3793L33.3402 0.665025C33.2041 0.35468 32.8412 0.0886703 32.4783 0.0886703H28.0783C27.7155 0.0886703 27.3526 0.35468 27.2165 0.665025L20.9567 17.3793C20.8206 17.6897 21.0021 17.9557 21.3649 17.9557H24.5402C24.9031 17.9557 25.266 17.6897 25.4021 17.3793L26.2186 15.1182C26.3546 14.8079 26.7175 14.5419 27.0804 14.5419H33.5216C33.8845 14.5419 34.2474 14.8079 34.3835 15.1182L35.2 17.3793C35.3361 17.6897 35.699 17.9557 36.0619 17.9557H39.2371C39.6 17.9557 39.7814 17.6897 39.6454 17.3793H39.6ZM32.1155 10.8177H28.4412C28.0784 10.8177 27.8969 10.5517 28.033 10.2414L30.0742 4.69951C30.2103 4.38916 30.3918 4.38916 30.4825 4.69951L32.5237 10.2414C32.6598 10.5517 32.433 10.8177 32.1155 10.8177ZM19.3691 17.335V0.70936C19.3691 0.35468 19.0969 0.0886703 18.734 0.0886703H15.8763C15.5134 0.0886703 15.1052 0.310345 14.8784 0.576355L10.0701 7.49261C9.88866 7.75862 9.57114 7.75862 9.34433 7.49261L4.49072 0.576355C4.30928 0.310345 3.85567 0.0886703 3.49278 0.0886703H0.635051C0.272165 0.0886703 0 0.35468 0 0.70936V17.335C0 17.6897 0.272165 17.9557 0.635051 17.9557H3.67423C4.03711 17.9557 4.30928 17.6897 4.30928 17.335V8.1133C4.30928 7.75862 4.49072 7.71429 4.67217 7.9803L9.25361 14.1429C9.48041 14.4089 9.79794 14.4089 9.97938 14.1429L14.5608 7.9803C14.7876 7.71429 14.9237 7.75862 14.9237 8.1133V17.335C14.9237 17.6897 15.1959 17.9557 15.5588 17.9557H18.5979C18.9608 17.9557 19.233 17.6897 19.233 17.335H19.3691Z" fill="#1E293B"/>
</svg>
