<svg width="198" height="33" viewBox="0 0 198 33" fill="none" xmlns="http://www.w3.org/2000/svg">
<path d="M35.5851 31.846V1.14278C35.5851 0.517912 35.0658 0.00562961 34.4253 0.00562961H29.1743C28.5396 0.00562961 27.7202 0.42784 27.3625 0.945752L18.4705 13.719C18.1128 14.2369 17.5242 14.2369 17.1607 13.719L8.22259 0.945752C7.85907 0.42784 7.04546 0.00562961 6.41074 0.00562961H1.15982C0.525092 0.00562961 0 0.517912 0 1.14278V31.846C0 32.4708 0.519322 32.9887 1.15982 32.9887H6.79157C7.4263 32.9887 7.95139 32.4765 7.95139 31.8516V14.8112C7.95139 14.1863 8.25721 14.085 8.63228 14.5916L17.0857 25.9913C17.4607 26.4979 18.0782 26.4979 18.4532 25.9913L26.947 14.5916C27.3221 14.085 27.6337 14.1863 27.6337 14.8112V31.8516C27.6337 32.4765 28.153 32.9944 28.7935 32.9944H34.4253C35.06 32.9944 35.5851 32.4821 35.5851 31.8572M59.145 19.8495H52.3592C51.7244 19.8495 51.3782 19.3654 51.5975 18.7799L55.3597 8.57932C55.579 7.98823 55.9309 7.98823 56.1502 8.57932L59.9124 18.7799C60.1317 19.371 59.7855 19.8495 59.1507 19.8495M72.982 31.9248L61.3838 1.08086C61.1645 0.495394 60.4606 0.0112592 59.8258 0.0112592H51.7013C51.0666 0.0112592 50.3627 0.489765 50.1434 1.08086L38.5452 31.9248C38.3259 32.5102 38.6664 32.9944 39.3011 32.9944H45.1752C45.8099 32.9944 46.5139 32.5102 46.7332 31.9248L48.2854 27.7477C48.5046 27.1622 49.2028 26.6781 49.8433 26.6781H61.7012C62.3359 26.6781 63.0399 27.1622 63.2591 27.7477L64.8113 31.9248C65.0306 32.5102 65.7288 32.9944 66.3693 32.9944H72.2434C72.8781 32.9944 73.2186 32.5159 72.9993 31.9248M96.3168 11.1295C96.3168 13.4376 94.4011 15.3234 91.5737 15.3234L83.5646 15.3403C83.3857 15.3403 83.2415 15.194 83.2415 15.0138V7.30706C83.2415 7.12692 83.3857 6.98055 83.5646 6.98055H91.9084C94.3492 6.98055 96.3168 8.86643 96.3168 11.1295ZM104.718 32.0655L98.0883 22.5123C97.7248 22.0113 97.4536 21.1837 98.1633 20.7108C101.983 18.7574 104.032 15.042 104.032 11.1295C104.032 5.66325 99.6232 0.0112592 92.1565 0.0112592H79.4851H76.5365C75.9075 0.0112592 75.394 0.523541 75.394 1.14841V31.8516C75.394 32.4765 75.9075 32.9944 76.5365 32.9944H82.099C82.7279 32.9944 83.2415 32.4821 83.2415 31.8572V22.5686C83.253 22.3434 83.4377 22.1633 83.6627 22.1633H88.4462C88.7347 22.1464 89.0175 22.2871 89.2194 22.5742L95.5263 32.0711C95.8898 32.5834 97.2978 33 97.9267 33H104.251C104.88 33 105.093 32.5834 104.724 32.0768M138.266 32.0768L125.832 15.1714C125.457 14.6648 125.497 13.8654 125.924 13.3982L137.222 0.872569C137.643 0.405322 137.47 0.0225179 136.835 0.0225179H129.092C128.457 0.0225179 127.597 0.416581 127.193 0.895087L116.513 13.4713C116.103 13.9498 115.768 13.8316 115.768 13.2068V1.14278C115.768 0.517912 115.249 0.00562961 114.608 0.00562961H108.977C108.342 0.00562961 107.817 0.517912 107.817 1.14278V31.846C107.817 32.4708 108.336 32.9887 108.977 32.9887H114.608C115.243 32.9887 115.768 32.4765 115.768 31.8516V25.7886C115.768 25.1638 116.115 24.2687 116.536 23.7958L119.167 20.8797C119.588 20.4125 120.24 20.4463 120.61 20.9529L128.653 32.0542C129.023 32.5665 129.848 32.9831 130.482 32.9831H137.793C138.428 32.9831 138.647 32.5665 138.272 32.0599M166.229 5.92784V1.13715C166.229 0.512283 165.71 0 165.069 0H142.15C141.515 0 140.99 0.512283 140.99 1.13715V31.8403C140.99 32.4652 141.509 32.9831 142.15 32.9831H165.023C165.658 32.9831 166.183 32.4708 166.183 31.846V27.0553C166.183 26.4304 165.664 25.9181 165.023 25.9181H149.905C149.27 25.9181 148.745 25.4058 148.745 24.781V20.7953C148.745 20.1704 149.265 19.6581 149.905 19.6581H162.628C163.263 19.6581 163.788 19.1459 163.788 18.521V13.9667C163.788 13.3419 163.269 12.8296 162.628 12.8296H149.905C149.27 12.8296 148.745 12.3173 148.745 11.6924V8.22467C148.745 7.59979 149.265 7.08751 149.905 7.08751H165.069C165.704 7.08751 166.229 6.57523 166.229 5.95036M198 5.95036V1.15967C198 0.534801 197.481 0.0225179 196.84 0.0225179H169.847C169.212 0.0225179 168.687 0.534801 168.687 1.15967V5.95036C168.687 6.57523 169.206 7.08751 169.847 7.08751H178.208C178.843 7.08751 179.368 7.59979 179.368 8.22467V31.8572C179.368 32.4821 179.887 33 180.528 33H186.159C186.794 33 187.319 32.4877 187.319 31.8628V8.20778C187.319 7.58291 187.839 7.07062 188.479 7.07062H196.84C197.475 7.07062 198 6.55834 198 5.93347" fill="#1A1A1A"/>
</svg>
