<svg width="122" height="34" viewBox="0 0 122 34" fill="none" xmlns="http://www.w3.org/2000/svg">
<g clip-path="url(#clip0_2036_19600)">
<path d="M16.7754 31.8085C14.9401 32.1408 13.0726 32.2404 11.1407 32.5058L5.24826 14.7091V33.2696C3.41302 33.4688 1.73874 33.7344 0 34V0H4.8943L11.5914 19.2913V0H16.7754V31.8085ZM26.9179 12.4512C28.9144 12.4512 31.9732 12.3515 33.8084 12.3515V17.6639C31.5222 17.6639 28.8499 17.6639 26.9179 17.7636V25.666C29.9447 25.4669 32.9713 25.201 36.03 25.1014V30.2144L21.766 31.3767V0H36.03V5.31251H26.9179V12.4512ZM55.1881 5.31263H49.8432V29.7501C48.1045 29.7501 46.3657 29.7501 44.6917 29.8163V5.31263H39.3468V0H55.1883L55.1881 5.31263ZM63.5596 12.086H70.6112V17.3984H63.5596V29.4513H58.5041V0H72.8973V5.31251H63.5596V12.086ZM81.2688 24.8027C84.1989 24.8689 87.161 25.1018 90.0268 25.2675V30.5137C85.4225 30.2146 80.8181 29.9162 76.1172 29.8163V0H81.2688V24.8027ZM94.3736 30.8789C96.0157 30.9787 97.7544 31.0783 99.4287 31.2772V0H94.3736V30.8789ZM122 0L115.464 16.17L122 34C120.068 33.7344 118.136 33.3691 116.204 33.037L112.501 23.2091L108.735 32.2404C106.867 31.9081 105.064 31.8085 103.196 31.5428L109.829 15.9706L103.84 0H109.378L112.759 8.93166L116.365 0H122V0Z" fill="#0E0D0D"/>
</g>
<defs>
<clipPath id="clip0_2036_19600">
<rect width="122" height="34" fill="white"/>
</clipPath>
</defs>
</svg>
