<svg class="us-logo" xmlns="http://www.w3.org/2000/svg" width="60" height="47" fill="none" viewBox="0 0 60 47" role="img" aria-label="Us Magazine Home Page Logo">
						<g clip-path="url(#clip0_63_5548)">
							<path fill="#EC2A8C" d="M27.081 0v26.109c0 5.6-2.077 9.044-7.033 9.044s-7.165-3.444-7.165-9.044V0H0v26.109c0 14.447 8.4 20.18 19.851 20.18 11.45 0 20.114-5.733 20.114-20.18V0H27.081Z"></path>
							<mask id="mask0_63_5548" width="40" height="47" x="0" y="0" maskUnits="userSpaceOnUse" style="mask-type:alpha">
								<path fill="#EC2A8C" d="M27.081 0v26.109c0 5.6-2.077 9.044-7.033 9.044s-7.165-3.444-7.165-9.044V0H0v26.109c0 14.447 8.4 20.18 19.851 20.18 11.45 0 20.114-5.733 20.114-20.18V0H27.081Z"></path>
							</mask>
							<g filter="url(#filter0_d_63_5548)" mask="url(#mask0_63_5548)">
								<path fill="#EC2A8C" d="M46.485 23.164c-2.997-.907-3.391-1.302-3.391-2.34 0-1.04.591-1.5 2.866-1.5 2.997 0 6.376.908 10.872 2.867l2.603-9.045c-4.562-1.63-8.007-2.471-13.147-2.471-9.307 0-13.935 4.167-13.935 11.2 0 7.034 3.642 9.242 14.185 12.042 2.209.592 2.734 1.04 2.734 2.143 0 1.039-.84 1.565-3.128 1.565-2.998 0-7.678-1.17-11.78-2.998l-2.734 8.848c4.365 1.696 9.242 2.8 14.25 2.8 8.717 0 14.12-3.642 14.12-11.516.026-6.77-3.878-9.045-13.515-11.595Z"></path>
							</g>
							<path fill="#EC2A8C" d="M46.485 23.164c-2.997-.907-3.391-1.302-3.391-2.34 0-1.04.591-1.5 2.866-1.5 2.997 0 6.376.908 10.872 2.867l2.603-9.045c-4.562-1.63-8.007-2.471-13.147-2.471-9.307 0-13.935 4.167-13.935 11.2 0 7.034 3.642 9.242 14.185 12.042 2.209.592 2.734 1.04 2.734 2.143 0 1.039-.84 1.565-3.128 1.565-2.998 0-7.678-1.17-11.78-2.998l-2.734 8.848c4.365 1.696 9.242 2.8 14.25 2.8 8.717 0 14.12-3.642 14.12-11.516.026-6.77-3.878-9.045-13.515-11.595Z"></path>
							<path fill="#001722" d="M34.364 5.1H57.91v5.588H34.365V5.101h-.001Z"></path>
							<path fill="#fff" d="M38.387 9.255h-.736l-.131-.618c-.092-.447-.184-.973-.198-1.183-.013.21-.105.75-.197 1.183l-.131.618h-.723l-.684-2.866h.815l.079.473c.066.408.145.908.17 1.236.027-.342.12-.828.211-1.236l.092-.486h.723l.092.486c.092.408.184.908.21 1.236.027-.342.106-.841.172-1.236l.078-.473h.816l-.658 2.866Zm1.946 0V6.389h2.182v.67h-1.393v.382h.841v.657h-.841v.487h1.433v.67m1.314 0V6.389h2.196v.67h-1.407v.382h.841v.657h-.84v.487h1.432v.67m3.024 0-.592-1.223-.29.355v.868h-.801V6.389h.802v.329c0 .236 0 .5-.013.71.118-.184.368-.513.552-.75l.223-.289h.96l-.868 1.012.96 1.854h-.933Zm2.116 0V6.389h.802v2.17h1.262v.696m2.327-1.065v1.065h-.802V8.203l-1.065-1.8h.92l.224.433c.158.303.276.579.329.736.052-.17.17-.447.328-.736l.224-.434h.907L55.622 8.19Z"></path>
						</g>
						<defs>
							<clipPath id="clip0_63_5548">
								<path fill="#fff" d="M0 0h60v47H0z"></path>
							</clipPath>
							<filter id="filter0_d_63_5548" width="34.37" height="41.6" x="26.63" y="7.675" color-interpolation-filters="sRGB" filterUnits="userSpaceOnUse">
								<feFlood flood-opacity="0" result="BackgroundImageFix"></feFlood>
								<feColorMatrix in="SourceAlpha" result="hardAlpha" values="0 0 0 0 0 0 0 0 0 0 0 0 0 0 0 0 0 0 127 0"></feColorMatrix>
								<feOffset dx="-2"></feOffset>
								<feGaussianBlur stdDeviation="1.5"></feGaussianBlur>
								<feComposite in2="hardAlpha" operator="out"></feComposite>
								<feColorMatrix values="0 0 0 0 0 0 0 0 0 0 0 0 0 0 0 0 0 0 0.3 0"></feColorMatrix>
								<feBlend in2="BackgroundImageFix" result="effect1_dropShadow_63_5548"></feBlend>
								<feBlend in="SourceGraphic" in2="effect1_dropShadow_63_5548" result="shape"></feBlend>
							</filter>
						</defs>
					</svg>